<?xml version="1.0" encoding="UTF-8"?>
<!DOCTYPE svg PUBLIC "-//W3C//DTD SVG 1.1//EN" "http://www.w3.org/Graphics/SVG/1.1/DTD/svg11.dtd">
<svg xmlns="http://www.w3.org/2000/svg" version="1.1" width="926px" height="920px" style="shape-rendering:geometricPrecision; text-rendering:geometricPrecision; image-rendering:optimizeQuality; fill-rule:evenodd; clip-rule:evenodd" xmlns:xlink="http://www.w3.org/1999/xlink">
<g><path style="opacity:1" fill="#fedb01" d="M 917.5,166.5 C 917.179,167.817 916.846,169.151 916.5,170.5C 917.243,176.137 917.743,181.804 918,187.5C 918.167,365.334 918.667,543 919.5,720.5C 916.736,798.559 880.403,854.725 810.5,889C 785.442,900.479 759.109,906.479 731.5,907C 709.667,907.167 687.833,907.333 666,907.5C 509.508,907.208 353.008,907.041 196.5,907C 126.457,902.748 72.2901,871.582 34,813.5C 17.9215,784.595 9.58814,753.595 9,720.5C 8.33333,542.833 8.33333,365.167 9,187.5C 13.3722,106.562 52.5388,49.7284 126.5,17C 148.287,8.04249 170.954,3.04249 194.5,2C 373.167,1.33333 551.833,1.33333 730.5,2C 790.588,4.29693 840.088,28.1303 879,73.5C 901.089,100.583 913.922,131.583 917.5,166.5 Z"/></g>
<g><path style="opacity:1" fill="#fed806" d="M 527.5,243.5 C 521.902,247.993 517.735,253.66 515,260.5C 459.117,384.923 403.283,509.257 347.5,633.5C 347.19,632.262 346.69,632.262 346,633.5C 341.884,644.791 343.051,655.457 349.5,665.5C 348.902,666.795 348.402,668.128 348,669.5C 347.692,668.692 347.192,668.025 346.5,667.5C 345.269,668.651 345.269,669.817 346.5,671C 344.067,671.766 342.234,673.266 341,675.5C 340.667,673.833 340.333,672.167 340,670.5C 339.147,672.125 338.147,672.458 337,671.5C 335.354,669.945 335.021,668.279 336,666.5C 335.086,667.654 334.253,667.487 333.5,666C 333.957,665.586 334.291,665.086 334.5,664.5C 333.045,662.78 332.212,660.78 332,658.5C 331.309,660.891 330.309,660.891 329,658.5C 328.667,658.833 328.333,659.167 328,659.5C 329.001,656.802 328.501,654.302 326.5,652C 327.5,651.333 328.5,651.333 329.5,652C 330.112,653.303 330.446,654.47 330.5,655.5C 331.308,655.192 331.975,654.692 332.5,654C 332.793,651.692 331.959,649.526 330,647.5C 329.396,649.686 328.23,649.852 326.5,648C 327.212,645.973 328.212,644.973 329.5,645C 328.99,643.174 328.156,643.007 327,644.5C 326.544,643.256 327.044,642.423 328.5,642C 324.19,638.708 324.523,637.374 329.5,638C 329.87,636.39 329.203,634.89 327.5,633.5C 329.138,632.295 329.471,630.962 328.5,629.5C 330.167,628.5 331.5,627.167 332.5,625.5C 333.192,626.025 333.692,626.692 334,627.5C 334.309,626.234 334.809,625.067 335.5,624C 335.488,622.16 334.654,620.327 333,618.5C 332.346,619.696 331.846,619.696 331.5,618.5C 332.025,617.808 332.692,617.308 333.5,617C 332.692,616.692 332.025,616.192 331.5,615.5C 332.914,614.535 333.747,613.535 334,612.5C 334.945,612.905 335.612,613.572 336,614.5C 336.216,612.616 336.883,610.949 338,609.5C 338.667,610.167 339.333,610.833 340,611.5C 341.738,607.741 343.571,604.074 345.5,600.5C 346.665,599.416 347.998,598.583 349.5,598C 348.63,594.513 349.63,591.513 352.5,589C 351.786,587.657 352.12,586.324 353.5,585C 352.5,584.667 351.5,584.333 350.5,584C 352.286,583.215 353.786,582.049 355,580.5C 355.333,581.167 355.667,581.833 356,582.5C 356.711,580.633 356.211,579.133 354.5,578C 355.362,575.266 356.195,575.099 357,577.5C 359.683,576.107 359.85,574.774 357.5,573.5C 358.441,573.511 359.108,573.011 359.5,572C 357.877,570.124 358.21,568.79 360.5,568C 359.209,565.91 359.876,564.576 362.5,564C 359.774,560.55 360.774,558.55 365.5,558C 363.246,556.946 362.913,555.446 364.5,553.5C 366.516,551.642 368.516,550.642 370.5,550.5C 369.065,548.626 367.898,546.626 367,544.5C 366.716,546.886 365.716,547.552 364,546.5C 362.632,544.973 362.132,543.473 362.5,542C 364.72,538.966 367.053,538.299 369.5,540C 368.167,539.333 368.167,538.667 369.5,538C 368.5,537.667 367.5,537.333 366.5,537C 367.167,535.333 367.833,533.667 368.5,532C 368.167,531.667 367.833,531.333 367.5,531C 369.828,529.339 371.828,527.339 373.5,525C 373.265,524.127 372.931,523.293 372.5,522.5C 373.522,521.646 374.355,520.646 375,519.5C 375.718,520.451 376.551,520.617 377.5,520C 376.377,518.956 375.044,518.29 373.5,518C 375.608,517.64 377.608,516.973 379.5,516C 378.747,514.513 377.914,514.346 377,515.5C 376.691,514.234 376.191,513.067 375.5,512C 376.701,511.097 377.535,509.931 378,508.5C 378.691,510.891 379.691,510.891 381,508.5C 382.085,510.657 383.251,510.824 384.5,509C 383.377,507.956 382.044,507.29 380.5,507C 381.977,505.116 383.31,503.116 384.5,501C 382.998,498.898 381.332,497.732 379.5,497.5C 381.479,495.758 382.979,493.758 384,491.5C 384.333,491.833 384.667,492.167 385,492.5C 385.308,491.692 385.808,491.025 386.5,490.5C 387.696,490.846 387.696,491.346 386.5,492C 387.5,492.667 388.5,492.667 389.5,492C 388.123,489.734 386.956,487.567 386,485.5C 388.222,487.278 390.388,487.445 392.5,486C 391.833,485.667 391.167,485.333 390.5,485C 391.623,483.956 392.956,483.29 394.5,483C 391.536,482.16 391.203,481.16 393.5,480C 393.384,478.732 393.051,477.398 392.5,476C 395.655,475.019 395.988,473.685 393.5,472C 395.397,470.89 397.23,470.724 399,471.5C 400.688,470.675 400.855,469.675 399.5,468.5C 400.025,467.808 400.692,467.308 401.5,467C 399.058,465.319 397.725,463.319 397.5,461C 398.471,459.796 399.471,459.296 400.5,459.5C 399.218,457.821 398.218,455.987 397.5,454C 398.742,453.689 399.742,454.189 400.5,455.5C 400.296,454.471 400.796,453.471 402,452.5C 402.718,453.451 403.551,453.617 404.5,453C 402.777,449.592 403.777,447.259 407.5,446C 406.185,444.605 406.519,443.605 408.5,443C 405.061,441.027 405.395,439.027 409.5,437C 408.833,436.333 408.167,435.667 407.5,435C 409.435,433.762 411.435,433.262 413.5,433.5C 413.013,432.554 412.68,431.554 412.5,430.5C 414.128,427.429 415.462,424.596 416.5,422C 415.72,420.927 415.887,419.76 417,418.5C 417.333,418.833 417.667,419.167 418,419.5C 418.309,418.234 418.809,417.067 419.5,416C 419.153,414.431 418.986,412.598 419,410.5C 420.193,412.443 421.693,412.276 423.5,410C 421.717,408.933 421.217,407.433 422,405.5C 422.149,408.279 422.983,408.779 424.5,407C 423.833,405.667 423.167,404.333 422.5,403C 424.807,402.646 425.141,401.646 423.5,400C 424.444,398.523 425.777,397.523 427.5,397C 427.167,396.667 426.833,396.333 426.5,396C 428.207,395.805 429.874,395.805 431.5,396C 430.833,394.667 429.833,393.667 428.5,393C 431.544,392.641 431.878,391.974 429.5,391C 431.301,390.683 431.634,390.016 430.5,389C 432.036,387.401 432.536,385.567 432,383.5C 431.577,384.956 430.744,385.456 429.5,385C 431.706,383.316 433.206,381.149 434,378.5C 435.459,381.443 437.126,381.776 439,379.5C 439.333,379.833 439.667,380.167 440,380.5C 440.325,378.447 439.991,376.447 439,374.5C 437.771,376.947 436.271,377.113 434.5,375C 438.914,374.436 439.581,372.603 436.5,369.5C 437.5,368.167 438.5,368.167 439.5,369.5C 438.185,370.895 438.519,371.895 440.5,372.5C 442.271,371.965 442.604,371.131 441.5,370C 442.071,368.795 442.738,367.628 443.5,366.5C 445.085,364.913 446.752,364.08 448.5,364C 447.833,363.667 447.167,363.333 446.5,363C 447.711,362.107 447.711,361.274 446.5,360.5C 445.914,360.709 445.414,361.043 445,361.5C 445.195,359.874 445.195,358.207 445,356.5C 441.903,355.711 441.736,354.544 444.5,353C 443.328,352.581 442.328,351.915 441.5,351C 442.552,349.881 443.719,349.381 445,349.5C 445.691,351.891 446.691,351.891 448,349.5C 448.333,350.167 448.667,350.833 449,351.5C 450.295,349.474 451.795,348.474 453.5,348.5C 452.711,346.512 451.545,346.179 450,347.5C 448.933,346.809 447.766,346.309 446.5,346C 448.359,345.316 450.026,344.316 451.5,343C 451.043,342.586 450.709,342.086 450.5,341.5C 451.936,339.964 452.769,338.297 453,336.5C 453.758,338.769 453.591,340.936 452.5,343C 453.725,343.563 454.725,343.23 455.5,342C 455.45,338.856 455.116,336.022 454.5,333.5C 455.355,332.707 456.189,333.04 457,334.5C 457.5,334 458,333.5 458.5,333C 457.328,332.581 456.328,331.915 455.5,331C 456.928,329.084 457.928,326.917 458.5,324.5C 460.809,323.067 462.309,323.734 463,326.5C 464.824,325.251 464.657,324.085 462.5,323C 463.833,322.333 463.833,321.667 462.5,321C 463.5,320.667 464.5,320.333 465.5,320C 464.572,319.612 463.905,318.945 463.5,318C 464.187,316.838 464.353,315.672 464,314.5C 463.667,314.833 463.333,315.167 463,315.5C 455.713,312.365 456.213,310.198 464.5,309C 463.667,306.919 463.667,304.752 464.5,302.5C 467.332,303.629 469.999,303.129 472.5,301C 470.044,298.841 470.71,298.008 474.5,298.5C 474.725,294.944 473.892,294.61 472,297.5C 471.5,297.333 471,297.167 470.5,297C 472.249,294.914 473.583,292.581 474.5,290C 473.316,288.452 473.483,286.952 475,285.5C 475.219,286.938 475.719,288.271 476.5,289.5C 477.883,286.924 478.717,287.258 479,290.5C 479.667,288.833 479.667,287.167 479,285.5C 475.89,286.673 475.723,286.173 478.5,284C 477.167,282.16 477.334,281.66 479,282.5C 479.492,281.451 479.326,280.451 478.5,279.5C 478.808,278.692 479.308,278.025 480,277.5C 480.333,279.5 480.667,281.5 481,283.5C 481.777,280.571 481.61,277.737 480.5,275C 482.095,275.617 483.428,275.284 484.5,274C 480.815,273.086 481.148,272.419 485.5,272C 484.833,271.667 484.167,271.333 483.5,271C 484.766,270.691 485.933,270.191 487,269.5C 487.333,269.833 487.667,270.167 488,270.5C 488.456,269.256 487.956,268.423 486.5,268C 488.246,267.529 489.913,266.862 491.5,266C 490.167,265.333 490.167,264.667 491.5,264C 490.833,263.667 490.167,263.333 489.5,263C 490.427,260.822 492.094,258.656 494.5,256.5C 494.023,255.522 493.357,254.689 492.5,254C 493.701,253.097 494.535,251.931 495,250.5C 495.667,251.167 496.333,251.833 497,252.5C 498.74,251.284 499.74,249.618 500,247.5C 500.579,251.386 501.412,251.386 502.5,247.5C 502.291,246.914 501.957,246.414 501.5,246C 503.764,243.902 505.43,241.402 506.5,238.5C 509.064,238.629 511.731,238.296 514.5,237.5C 515.164,235.264 516.331,233.264 518,231.5C 521.29,231.426 524.457,231.76 527.5,232.5C 529.197,231.636 530.363,230.303 531,228.5C 531.219,229.938 531.719,231.271 532.5,232.5C 533.167,232.167 533.833,231.833 534.5,231.5C 535.96,233.422 537.627,234.089 539.5,233.5C 540.192,232.975 540.692,232.308 541,231.5C 541.833,233.667 543.333,235.167 545.5,236C 548.097,236.281 550.43,236.448 552.5,236.5C 543.719,236.469 535.386,238.302 527.5,242C 526.262,242.69 526.262,243.19 527.5,243.5 Z"/></g>
<g><path style="opacity:1" fill="#fdd707" d="M 597.5,312.5 C 593.626,324 595.626,334.333 603.5,343.5C 602.475,343.897 602.308,344.563 603,345.5C 639.195,381.361 675.028,417.528 710.5,454C 708.689,455.041 708.355,456.207 709.5,457.5C 677.146,491.356 644.146,524.856 610.5,558C 602.972,556.424 595.305,555.257 587.5,554.5C 573.907,555.305 561.907,559.972 551.5,568.5C 545.343,566.426 539.343,563.76 533.5,560.5C 532.369,558.926 532.202,557.259 533,555.5C 534.364,556.258 535.531,555.758 536.5,554C 536.167,553.667 535.833,553.333 535.5,553C 536.766,552.691 537.933,552.191 539,551.5C 539.442,553.679 540.442,554.345 542,553.5C 541.126,552.243 540.46,550.243 540,547.5C 541.079,549.394 542.413,549.727 544,548.5C 545.154,550.957 546.488,550.957 548,548.5C 548.667,551.167 549.333,551.167 550,548.5C 552.173,551.277 552.673,551.11 551.5,548C 553.443,546.445 555.61,545.278 558,544.5C 559.342,545.313 560.508,545.646 561.5,545.5C 560.5,546.167 559.5,546.833 558.5,547.5C 558.667,547.833 558.833,548.167 559,548.5C 560.399,547.773 561.899,547.273 563.5,547C 562.66,545.334 563.16,545.167 565,546.5C 567.168,544.545 569.502,543.879 572,544.5C 574.887,542.248 576.22,539.248 576,535.5C 576.419,539.852 577.086,540.185 578,536.5C 578.914,537.654 579.747,537.487 580.5,536C 579.833,535.667 579.167,535.333 578.5,535C 580.112,534.28 581.612,534.446 583,535.5C 583.333,534.833 583.667,534.167 584,533.5C 584.7,535.032 585.866,536.032 587.5,536.5C 588.026,531.533 589.193,531.533 591,536.5C 591.336,534.926 592.169,533.592 593.5,532.5C 594.682,534.645 596.182,534.645 598,532.5C 599.388,533.554 600.888,533.72 602.5,533C 601.376,532.751 600.376,532.251 599.5,531.5C 599.846,530.304 600.346,530.304 601,531.5C 601.29,529.956 601.956,528.623 603,527.5C 604.388,528.554 605.888,528.72 607.5,528C 608.833,527.333 608.833,526.667 607.5,526C 608.449,525.383 609.282,525.549 610,526.5C 611.04,523.96 612.874,522.293 615.5,521.5C 612.869,519.995 613.203,519.329 616.5,519.5C 616.513,516.639 617.679,515.639 620,516.5C 620.471,514.754 621.138,513.087 622,511.5C 624.013,517.888 625.679,517.888 627,511.5C 627.833,510 629,508.833 630.5,508C 629.449,506.615 628.116,505.615 626.5,505C 629.167,504.333 631.833,503.667 634.5,503C 633.167,502.667 631.833,502.333 630.5,502C 632.833,501 635.167,500 637.5,499C 635.606,497.899 634.939,496.566 635.5,495C 638.903,494.233 639.903,495.399 638.5,498.5C 639.167,498.833 639.833,499.167 640.5,499.5C 638.96,500.532 638.46,501.865 639,503.5C 640.444,500.74 642.611,498.907 645.5,498C 641.231,496.565 640.898,494.899 644.5,493C 650.937,492.041 656.104,489.207 660,484.5C 660.617,485.449 660.451,486.282 659.5,487C 661.061,487.318 662.228,488.151 663,489.5C 664,487.5 665,485.5 666,483.5C 667.594,482.427 669.094,481.427 670.5,480.5C 671.425,481.641 672.259,481.641 673,480.5C 674.247,482.881 674.58,482.547 674,479.5C 672.992,479.018 671.825,478.852 670.5,479C 671.634,477.984 671.301,477.317 669.5,477C 671.112,476.28 672.612,476.446 674,477.5C 673.232,474.504 673.399,471.837 674.5,469.5C 676.575,470.762 678.575,470.595 680.5,469C 679.529,467.796 678.529,467.296 677.5,467.5C 679.475,466.251 679.809,464.751 678.5,463C 680.183,459.38 680.85,455.546 680.5,451.5C 682.857,451.663 685.19,451.497 687.5,451C 685.044,449.289 682.377,447.956 679.5,447C 680.308,446.692 680.975,446.192 681.5,445.5C 680.248,443.999 679.248,442.332 678.5,440.5C 678.81,442.201 678.31,443.868 677,445.5C 676.5,444.333 675.667,443.5 674.5,443C 675.167,442.667 675.833,442.333 676.5,442C 675.151,441.228 674.318,440.061 674,438.5C 673.333,439.833 672.333,440.833 671,441.5C 671.419,439.497 672.253,437.497 673.5,435.5C 673.003,432.45 671.503,431.45 669,432.5C 668.417,430.998 667.584,429.665 666.5,428.5C 665.914,428.709 665.414,429.043 665,429.5C 663.933,428.057 662.766,426.724 661.5,425.5C 662.665,424.416 663.998,423.583 665.5,423C 664.333,422.5 663.5,421.667 663,420.5C 661.221,421.479 659.555,421.146 658,419.5C 657.692,420.308 657.192,420.975 656.5,421.5C 656.242,419.424 655.742,417.091 655,414.5C 653.561,416.014 652.061,416.347 650.5,415.5C 650.901,413.566 651.901,412.066 653.5,411C 651.102,409.982 648.769,408.815 646.5,407.5C 650.522,404.848 650.188,404.014 645.5,405C 646.28,403.927 646.113,402.76 645,401.5C 644.224,404.649 642.724,405.149 640.5,403C 639.449,401.615 638.116,400.615 636.5,400C 638.563,398.428 639.229,396.595 638.5,394.5C 637.914,394.709 637.414,395.043 637,395.5C 635.56,393.954 633.727,393.121 631.5,393C 631.833,392.667 632.167,392.333 632.5,392C 630.309,390.606 628.975,389.106 628.5,387.5C 627.264,388.246 625.93,388.579 624.5,388.5C 624.286,386.856 624.62,385.356 625.5,384C 625,383.5 624.5,383 624,382.5C 623.667,383.833 623.333,385.167 623,386.5C 622.784,384.616 622.117,382.949 621,381.5C 618.902,381.815 616.902,381.815 615,381.5C 615.152,379.924 615.985,378.591 617.5,377.5C 616.264,376.643 614.931,375.977 613.5,375.5C 612.116,378.133 610.782,378.133 609.5,375.5C 610.025,374.808 610.692,374.308 611.5,374C 608.088,372.541 605.088,370.541 602.5,368C 603.833,367.333 603.833,366.667 602.5,366C 603.167,365.667 603.833,365.333 604.5,365C 602.939,364.682 601.772,363.849 601,362.5C 600.586,362.957 600.086,363.291 599.5,363.5C 599.36,362.236 599.36,361.069 599.5,360C 597.231,358.193 595.397,358.693 594,361.5C 594.4,355.572 591.9,351.405 586.5,349C 586.833,348.667 587.167,348.333 587.5,348C 586.809,346.933 586.309,345.766 586,344.5C 580.967,343.682 580.467,341.348 584.5,337.5C 584.023,336.522 583.357,335.689 582.5,335C 583.5,334.667 584.5,334.333 585.5,334C 584.671,332.184 583.837,330.351 583,328.5C 582.282,329.451 581.449,329.617 580.5,329C 581.868,327.66 583.201,326.326 584.5,325C 583.278,322.035 581.778,321.868 580,324.5C 579.333,321.833 578.667,321.833 578,324.5C 577.667,324.167 577.333,323.833 577,323.5C 577.138,321.762 577.638,320.095 578.5,318.5C 572.196,318.169 572.53,317.669 579.5,317C 580.833,316.333 580.833,315.667 579.5,315C 580.899,314.405 582.232,314.572 583.5,315.5C 584.731,314.349 584.731,313.183 583.5,312C 585.994,309.577 585.994,307.244 583.5,305C 584.449,304.383 585.282,304.549 586,305.5C 586.526,303.45 587.359,301.617 588.5,300C 588.167,299.667 587.833,299.333 587.5,299C 591.082,298.405 591.416,297.071 588.5,295C 588.799,293.68 588.966,292.18 589,290.5C 589.862,292.087 590.529,293.754 591,295.5C 591.984,293.205 592.817,293.539 593.5,296.5C 592.833,296.833 592.167,297.167 591.5,297.5C 592.999,299.858 594.666,300.024 596.5,298C 595.833,297.667 595.167,297.333 594.5,297C 595.212,295.575 595.379,294.075 595,292.5C 596.555,294.146 598.221,294.479 600,293.5C 600.635,294.966 601.469,296.3 602.5,297.5C 601.833,297.833 601.167,298.167 600.5,298.5C 601.025,299.192 601.692,299.692 602.5,300C 601.134,303.705 599.134,307.539 596.5,311.5C 596.624,312.107 596.957,312.44 597.5,312.5 Z"/></g>
<g><path style="opacity:1" fill="#131414" d="M 285.5,385.5 C 266.833,403.5 248.5,421.833 230.5,440.5C 226.161,444.664 222.161,449.164 218.5,454C 218.862,455.225 219.362,456.391 220,457.5C 223.055,461.624 226.555,465.291 230.5,468.5C 248.5,487.167 266.833,505.5 285.5,523.5C 298.433,537.935 311.933,551.935 326,565.5C 334.722,576.827 335.722,588.827 329,601.5C 323.934,607.436 317.768,611.436 310.5,613.5C 302.658,614.053 295.658,611.886 289.5,607C 272.299,589.632 254.965,572.465 237.5,555.5C 223.803,540.802 209.469,526.802 194.5,513.5C 180.506,499.339 166.673,485.006 153,470.5C 148.611,462.61 147.445,454.276 149.5,445.5C 151.308,442.564 153.141,439.564 155,436.5C 159.436,432.572 163.269,428.239 166.5,423.5C 187.5,403.167 208.167,382.5 228.5,361.5C 246.218,344.782 263.218,327.449 279.5,309.5C 284.996,303.253 291.663,298.753 299.5,296C 316.953,293.463 328.119,300.63 333,317.5C 334.43,326.689 332.43,335.023 327,342.5C 312.6,356.398 298.766,370.732 285.5,385.5 Z"/></g>
<g><path style="opacity:1" fill="#131314" d="M 551.5,568.5 C 561.907,559.972 573.907,555.305 587.5,554.5C 595.305,555.257 602.972,556.424 610.5,558C 644.146,524.856 677.146,491.356 709.5,457.5C 711.113,456.162 711.613,454.495 711,452.5C 675.326,415.993 639.493,379.66 603.5,343.5C 595.626,334.333 593.626,324 597.5,312.5C 601.67,304.326 608.003,298.659 616.5,295.5C 624.298,294.783 631.631,296.283 638.5,300C 684.361,345.528 729.861,391.361 775,437.5C 779.342,444.202 781.176,451.536 780.5,459.5C 779.596,460.209 779.263,461.209 779.5,462.5C 778.205,466.423 776.372,470.09 774,473.5C 732.333,515.167 690.667,556.833 649,598.5C 648.22,600.387 648.387,602.054 649.5,603.5C 653.793,637.336 640.46,661.17 609.5,675C 573.902,684.031 547.902,672.198 531.5,639.5C 530.336,635.341 529.003,631.341 527.5,627.5C 527.829,621.794 527.495,616.128 526.5,610.5C 499.838,596.502 473.171,582.502 446.5,568.5C 445.063,567.275 443.396,566.275 441.5,565.5C 440.478,565.855 439.811,566.522 439.5,567.5C 437.026,573.588 434.36,579.588 431.5,585.5C 420.824,610.684 409.657,635.684 398,660.5C 392.622,668.604 385.122,673.271 375.5,674.5C 357.001,674.339 346.668,665.006 344.5,646.5C 345.032,642.042 346.032,637.708 347.5,633.5C 403.283,509.257 459.117,384.923 515,260.5C 517.735,253.66 521.902,247.993 527.5,243.5C 544.37,234.629 558.203,237.963 569,253.5C 571.345,259.643 572.011,265.976 571,272.5C 534.447,355.941 497.614,439.274 460.5,522.5C 462.283,524.232 464.283,525.732 466.5,527C 494.482,540.99 522.149,555.49 549.5,570.5C 550.522,570.145 551.189,569.478 551.5,568.5 Z"/></g>
<g><path style="opacity:1" fill="#faed05" d="M 603.5,343.5 C 639.493,379.66 675.326,415.993 711,452.5C 711.613,454.495 711.113,456.162 709.5,457.5C 708.355,456.207 708.689,455.041 710.5,454C 675.028,417.528 639.195,381.361 603,345.5C 602.308,344.563 602.475,343.897 603.5,343.5 Z"/></g>
<g><path style="opacity:1" fill="#fcfa04" d="M 285.5,385.5 C 267.92,404.582 249.754,423.248 231,441.5C 230.601,441.272 230.435,440.938 230.5,440.5C 248.5,421.833 266.833,403.5 285.5,385.5 Z"/></g>
<g><path style="opacity:1" fill="#fcec01" d="M 228.5,361.5 C 208.167,382.5 187.5,403.167 166.5,423.5C 186.413,402.085 206.913,381.085 228,360.5C 228.399,360.728 228.565,361.062 228.5,361.5 Z"/></g>
<g><path style="opacity:1" fill="#faf604" d="M 780.5,459.5 C 781.176,451.536 779.342,444.202 775,437.5C 729.861,391.361 684.361,345.528 638.5,300C 631.631,296.283 624.298,294.783 616.5,295.5C 616.494,294.583 617.494,294.083 619.5,294C 626.679,293.461 633.346,295.128 639.5,299C 683.333,342.833 727.167,386.667 771,430.5C 775.621,435.409 778.954,441.075 781,447.5C 781.818,452.919 781.652,456.919 780.5,459.5 Z"/></g>
<g><path style="opacity:1" fill="#fed806" d="M 279.5,309.5 C 263.218,327.449 246.218,344.782 228.5,361.5C 228.565,361.062 228.399,360.728 228,360.5C 206.913,381.085 186.413,402.085 166.5,423.5C 163.269,428.239 159.436,432.572 155,436.5C 153.141,439.564 151.308,442.564 149.5,445.5C 149.369,443.333 149.036,443.166 148.5,445C 145.59,455.13 147.09,464.63 153,473.5C 166.419,487.422 180.252,500.755 194.5,513.5C 209.469,526.802 223.803,540.802 237.5,555.5C 253.596,573.107 270.596,590.607 288.5,608C 293.306,612.402 298.973,614.569 305.5,614.5C 302.098,614.972 299.098,616.472 296.5,619C 296.927,621.128 296.427,623.295 295,625.5C 294.147,623.875 293.147,623.542 292,624.5C 291.727,622.899 291.227,621.399 290.5,620C 291.888,619.111 291.722,618.611 290,618.5C 289.5,618.833 289,619.167 288.5,619.5C 289.966,622.58 289.133,624.914 286,626.5C 285.097,625.299 283.931,624.465 282.5,624C 283.96,623.189 284.293,622.355 283.5,621.5C 281.851,622.648 280.351,623.981 279,625.5C 279.988,623.08 279.655,620.747 278,618.5C 277.586,618.957 277.086,619.291 276.5,619.5C 275.289,618.726 275.289,617.893 276.5,617C 274.453,615.927 272.453,614.761 270.5,613.5C 269.201,614.09 268.368,615.09 268,616.5C 266.234,614.404 264.901,612.071 264,609.5C 262.308,609.324 260.808,608.824 259.5,608C 260.458,606.853 260.125,605.853 258.5,605C 259.5,604.667 260.5,604.333 261.5,604C 258.167,603 254.833,602 251.5,601C 251.957,600.586 252.291,600.086 252.5,599.5C 250.321,598.243 248.321,596.743 246.5,595C 248.947,593.771 249.113,592.271 247,590.5C 245.188,592.552 243.855,594.885 243,597.5C 240.122,596.209 240.288,594.709 243.5,593C 241.944,591.401 240.277,589.901 238.5,588.5C 238.846,587.304 239.346,587.304 240,588.5C 240.667,587.833 240.667,587.167 240,586.5C 239,586.167 238,585.833 237,585.5C 236.309,587.891 235.309,587.891 234,585.5C 233.016,587.795 232.183,587.461 231.5,584.5C 232.347,583.155 233.513,582.155 235,581.5C 235.688,580.668 235.521,580.002 234.5,579.5C 231.757,581.016 228.924,582.35 226,583.5C 225.833,583.167 225.667,582.833 225.5,582.5C 226.665,581.416 227.998,580.583 229.5,580C 229.167,579.667 228.833,579.333 228.5,579C 229.973,578.29 230.64,577.124 230.5,575.5C 228.146,575.162 225.813,574.662 223.5,574C 223.065,571.133 221.899,568.633 220,566.5C 218.175,567.571 217.008,566.904 216.5,564.5C 217.811,563.742 218.311,562.742 218,561.5C 217.667,561.833 217.333,562.167 217,562.5C 215.112,560.078 213.112,560.078 211,562.5C 210.383,561.551 210.549,560.718 211.5,560C 208.833,559 208.833,558 211.5,557C 210.552,556.517 209.552,556.351 208.5,556.5C 208.5,555.5 208.5,554.5 208.5,553.5C 207.127,553.657 205.793,553.49 204.5,553C 205.978,551.807 207.312,551.307 208.5,551.5C 207.24,550.618 206.074,549.618 205,548.5C 204.667,549.5 204.333,550.5 204,551.5C 202.865,551.273 201.698,550.94 200.5,550.5C 201.55,548.898 200.883,548.065 198.5,548C 200.615,547.576 201.448,546.409 201,544.5C 200.667,544.833 200.333,545.167 200,545.5C 197.143,542.399 194.143,541.732 191,543.5C 189.513,542.747 189.346,541.914 190.5,541C 189.24,539.887 188.073,539.72 187,540.5C 184.736,537.567 181.902,535.4 178.5,534C 183.833,532 183.833,530 178.5,528C 179.424,527.15 179.424,526.15 178.5,525C 180.512,523.848 180.678,522.682 179,521.5C 178.667,521.833 178.333,522.167 178,522.5C 175.108,521.606 172.774,519.94 171,517.5C 168.618,519.546 166.618,521.879 165,524.5C 164.5,523 164,521.5 163.5,520C 164.615,518.607 165.115,517.107 165,515.5C 163.423,515.472 161.756,514.805 160,513.5C 155.609,514.529 155.443,513.696 159.5,511C 156.315,509.464 154.149,506.964 153,503.5C 151.947,505.743 150.613,508.076 149,510.5C 148.693,507.124 146.86,505.79 143.5,506.5C 143.238,505.022 143.571,503.689 144.5,502.5C 145.451,503.326 146.451,503.492 147.5,503C 147.697,500.984 148.697,498.984 150.5,497C 148.887,496.911 147.72,497.745 147,499.5C 145.933,498.809 144.766,498.309 143.5,498C 144.451,497.282 144.617,496.449 144,495.5C 142.308,495.324 140.808,494.824 139.5,494C 142.361,493.46 145.028,492.46 147.5,491C 144.155,490.323 141.655,488.489 140,485.5C 139.667,486.167 139.333,486.833 139,487.5C 138.052,485.43 136.552,483.93 134.5,483C 137.668,482.418 138.001,481.418 135.5,480C 136.167,479.333 136.833,478.667 137.5,478C 131.629,475.624 131.629,472.79 137.5,469.5C 135.167,468.5 133.5,466.833 132.5,464.5C 133.274,463.289 134.107,463.289 135,464.5C 135.617,463.551 135.451,462.718 134.5,462C 135.167,461.667 135.833,461.333 136.5,461C 134.508,460.426 133.008,459.259 132,457.5C 131.282,458.451 130.449,458.617 129.5,458C 130.991,455.903 131.991,453.57 132.5,451C 131.5,450.667 130.5,450.333 129.5,450C 131.738,447.896 132.738,445.562 132.5,443C 133.249,441.266 133.749,439.433 134,437.5C 138.277,436.717 138.444,435.217 134.5,433C 136.715,430.444 138.549,427.611 140,424.5C 141.117,425.949 141.784,427.616 142,429.5C 142.318,427.939 143.151,426.772 144.5,426C 143.833,425.667 143.167,425.333 142.5,425C 143.833,424 143.833,423 142.5,422C 145.763,421.131 146.096,419.797 143.5,418C 145.367,417.289 146.867,417.789 148,419.5C 147.206,417.514 147.706,415.681 149.5,414C 151.932,414.422 154.265,413.755 156.5,412C 156.36,410.736 156.36,409.569 156.5,408.5C 155.108,409.605 153.941,410.939 153,412.5C 150.904,411.285 151.071,410.451 153.5,410C 153.167,409.667 152.833,409.333 152.5,409C 153.227,407.601 153.727,406.101 154,404.5C 154.787,405.711 155.454,406.711 156,407.5C 159.024,406.009 160.857,404.009 161.5,401.5C 162.275,403.475 163.609,404.309 165.5,404C 162.608,399.931 163.108,399.097 167,401.5C 168,398.36 170.167,397.027 173.5,397.5C 172.64,395.184 172.14,392.851 172,390.5C 172.667,393.167 173.333,393.167 174,390.5C 174.333,390.833 174.667,391.167 175,391.5C 176.368,390.007 176.535,388.507 175.5,387C 176.333,386.167 177.167,385.333 178,384.5C 180.055,384.152 182.055,384.819 184,386.5C 186.301,385.324 186.634,383.99 185,382.5C 184.396,384.686 183.23,384.852 181.5,383C 182.308,382.692 182.975,382.192 183.5,381.5C 181.73,380.18 181.397,378.68 182.5,377C 185.322,376.436 187.822,375.936 190,375.5C 190.333,376.167 190.667,376.833 191,377.5C 193.966,375.601 197.133,374.101 200.5,373C 202.693,373.57 204.693,373.236 206.5,372C 205.833,371.667 205.167,371.333 204.5,371C 205.938,370.781 207.271,370.281 208.5,369.5C 207.975,368.808 207.308,368.308 206.5,368C 208.213,366.075 209.547,363.908 210.5,361.5C 212.134,361.032 213.3,360.032 214,358.5C 214.333,359.167 214.667,359.833 215,360.5C 216.139,357.705 217.639,355.205 219.5,353C 219.167,352.667 218.833,352.333 218.5,352C 219.825,352.148 220.992,351.982 222,351.5C 221.805,349.874 221.805,348.207 222,346.5C 223.84,347.833 224.34,347.666 223.5,346C 224.303,342.438 226.303,341.271 229.5,342.5C 230.842,340.658 232.509,339.158 234.5,338C 233.328,337.581 232.328,336.915 231.5,336C 233.421,335.64 235.088,334.806 236.5,333.5C 238.817,334.71 240.817,334.21 242.5,332C 240.083,330.327 240.083,328.494 242.5,326.5C 244.453,327.024 246.12,328.024 247.5,329.5C 247.94,328.302 248.273,327.135 248.5,326C 246.314,325.396 246.148,324.23 248,322.5C 248.974,324.878 249.641,324.544 250,321.5C 251.487,322.253 251.654,323.086 250.5,324C 252.791,325.659 254.791,325.159 256.5,322.5C 256.896,319.572 257.063,316.572 257,313.5C 257.741,312.359 258.575,312.359 259.5,313.5C 260.251,312.624 260.751,311.624 261,310.5C 261.333,310.833 261.667,311.167 262,311.5C 263.292,309.751 264.458,307.918 265.5,306C 260.61,305.762 260.61,305.095 265.5,304C 264.5,303.667 263.5,303.333 262.5,303C 264.39,301.127 266.39,300.294 268.5,300.5C 269.806,299.088 270.64,297.421 271,295.5C 272.399,296.227 273.899,296.727 275.5,297C 273.993,297.837 273.493,299.004 274,300.5C 275.32,300.201 276.82,300.034 278.5,300C 276.071,299.549 275.904,298.715 278,297.5C 279.008,297.982 280.175,298.148 281.5,298C 280.202,300.499 280.536,302.833 282.5,305C 280.859,306.129 279.859,307.629 279.5,309.5 Z"/></g>
<g><path style="opacity:1" fill="#fcf504" d="M 149.5,445.5 C 147.445,454.276 148.611,462.61 153,470.5C 166.673,485.006 180.506,499.339 194.5,513.5C 180.252,500.755 166.419,487.422 153,473.5C 147.09,464.63 145.59,455.13 148.5,445C 149.036,443.166 149.369,443.333 149.5,445.5 Z"/></g>
<g><path style="opacity:1" fill="#fcfa03" d="M 779.5,462.5 C 780.573,463.251 780.74,464.251 780,465.5C 778.587,468.661 776.92,471.661 775,474.5C 733.333,516.167 691.667,557.833 650,599.5C 650.331,601.019 650.164,602.352 649.5,603.5C 648.387,602.054 648.22,600.387 649,598.5C 690.667,556.833 732.333,515.167 774,473.5C 776.372,470.09 778.205,466.423 779.5,462.5 Z"/></g>
<g><path style="opacity:1" fill="#fcf503" d="M 285.5,523.5 C 266.833,505.5 248.5,487.167 230.5,468.5C 248.8,485.29 266.967,502.957 285,521.5C 285.464,522.094 285.631,522.761 285.5,523.5 Z"/></g>
<g><path style="opacity:1" fill="#f9f006" d="M 237.5,555.5 C 254.965,572.465 272.299,589.632 289.5,607C 295.658,611.886 302.658,614.053 310.5,613.5C 309.708,614.518 308.041,614.851 305.5,614.5C 298.973,614.569 293.306,612.402 288.5,608C 270.596,590.607 253.596,573.107 237.5,555.5 Z"/></g>
<g><path style="opacity:1" fill="#f0e104" d="M 446.5,568.5 C 473.171,582.502 499.838,596.502 526.5,610.5C 527.495,616.128 527.829,621.794 527.5,627.5C 526.025,622.749 525.025,617.249 524.5,611C 498.469,597.318 472.469,583.652 446.5,570C 445.262,569.31 445.262,568.81 446.5,568.5 Z"/></g>
<g><path style="opacity:1" fill="#ffd934" d="M 917.5,166.5 C 918.895,175.632 919.728,184.966 920,194.5C 920.829,369.861 920.663,545.194 919.5,720.5C 918.667,543 918.167,365.334 918,187.5C 917.743,181.804 917.243,176.137 916.5,170.5C 916.846,169.151 917.179,167.817 917.5,166.5 Z"/></g>
<g><path style="opacity:1" fill="#f6ef05" d="M 431.5,585.5 C 432.239,585.369 432.906,585.536 433.5,586C 422.205,610.759 411.038,635.592 400,660.5C 392.576,671.962 382.076,677.129 368.5,676C 371.036,675.814 373.369,675.314 375.5,674.5C 385.122,673.271 392.622,668.604 398,660.5C 409.657,635.684 420.824,610.684 431.5,585.5 Z"/></g>
<g><path style="opacity:1" fill="#fed806" d="M 446.5,568.5 C 445.262,568.81 445.262,569.31 446.5,570C 472.469,583.652 498.469,597.318 524.5,611C 525.025,617.249 526.025,622.749 527.5,627.5C 529.003,631.341 530.336,635.341 531.5,639.5C 530.946,641.771 531.446,644.104 533,646.5C 541.643,660.976 553.81,671.309 569.5,677.5C 564.319,676.757 559.319,676.757 554.5,677.5C 553.167,678.833 553.167,680.167 554.5,681.5C 555.192,680.975 555.692,680.308 556,679.5C 557.399,680.227 558.899,680.727 560.5,681C 561.833,681.667 561.833,682.333 560.5,683C 562.112,683.72 563.612,683.554 565,682.5C 566,683.5 567,684.5 568,685.5C 568.49,684.207 568.657,682.873 568.5,681.5C 567.448,681.649 566.448,681.483 565.5,681C 567.167,680.333 568.833,680.333 570.5,681C 570.167,681.333 569.833,681.667 569.5,682C 571.919,683.93 573.586,683.597 574.5,681C 574.167,680.667 573.833,680.333 573.5,680C 575.951,679.694 578.284,680.194 580.5,681.5C 580.291,682.086 579.957,682.586 579.5,683C 580.849,683.772 581.682,684.939 582,686.5C 583.092,683.014 584.925,682.681 587.5,685.5C 587.533,684.011 588.033,682.678 589,681.5C 590.335,685.361 591.501,685.361 592.5,681.5C 590.234,680.686 587.9,680.186 585.5,680C 593.544,680.11 601.378,678.943 609,676.5C 610.264,678.409 611.764,680.743 613.5,683.5C 614.376,684.251 615.376,684.751 616.5,685C 615.359,685.741 615.359,686.575 616.5,687.5C 616.167,687.833 615.833,688.167 615.5,688.5C 614.858,685.203 613.691,684.869 612,687.5C 611,686.5 610,685.5 609,684.5C 606.716,686.597 605.049,688.597 604,690.5C 603.517,689.552 603.351,688.552 603.5,687.5C 601.519,686.652 599.519,686.152 597.5,686C 598.685,687.353 600.019,688.52 601.5,689.5C 601.333,689.833 601.167,690.167 601,690.5C 598.891,690.434 596.725,690.101 594.5,689.5C 592.995,692.131 592.329,691.797 592.5,688.5C 591.325,688.281 590.325,688.614 589.5,689.5C 588.948,691.333 588.115,693 587,694.5C 586.374,692.009 585.541,692.009 584.5,694.5C 584.346,693.091 584.179,691.424 584,689.5C 583.641,692.544 582.974,692.878 582,690.5C 581.751,691.624 581.251,692.624 580.5,693.5C 579.304,693.154 579.304,692.654 580.5,692C 578.147,690.036 575.647,689.536 573,690.5C 572.369,689.128 571.702,687.795 571,686.5C 566.764,687.317 566.598,688.317 570.5,689.5C 569.86,692.648 568.86,692.981 567.5,690.5C 566.284,691.002 565.117,691.335 564,691.5C 561.88,689.348 559.38,687.848 556.5,687C 559.212,683.256 558.712,682.756 555,685.5C 553,684.833 551.667,683.5 551,681.5C 549.245,682.67 548.245,684.337 548,686.5C 547.667,685.167 547.333,683.833 547,682.5C 546.586,682.957 546.086,683.291 545.5,683.5C 544.667,682.5 543.833,681.5 543,680.5C 542.333,683.167 541.667,683.167 541,680.5C 540.667,681.167 540.333,681.833 540,682.5C 539.5,681.333 538.667,680.5 537.5,680C 539.663,679.755 541.33,678.755 542.5,677C 540.154,677.079 537.987,677.912 536,679.5C 532.538,677.582 530.871,674.582 531,670.5C 530.195,672.901 529.362,672.734 528.5,670C 529.5,669.667 530.5,669.333 531.5,669C 529.622,668.748 527.622,668.081 525.5,667C 526.167,666.667 526.833,666.333 527.5,666C 526,665.167 524.833,664 524,662.5C 523.275,664.158 522.108,664.658 520.5,664C 521.167,663.667 521.833,663.333 522.5,663C 521.207,662.51 519.873,662.343 518.5,662.5C 518.36,660.876 519.027,659.71 520.5,659C 517.735,657.765 514.735,656.099 511.5,654C 512.167,653.667 512.833,653.333 513.5,653C 511.833,652 510.167,651 508.5,650C 509.634,648.984 509.301,648.317 507.5,648C 508.833,647.333 508.833,646.667 507.5,646C 506.84,646.898 505.507,647.232 503.5,647C 504.119,644.456 503.619,641.956 502,639.5C 501.174,641.405 500.007,641.739 498.5,640.5C 498.846,639.304 499.346,639.304 500,640.5C 500.595,639.101 500.428,637.768 499.5,636.5C 500.167,635.5 500.833,634.5 501.5,633.5C 499.808,631.641 498.308,629.641 497,627.5C 497.213,631.516 496.213,631.516 494,627.5C 492.34,627.324 490.674,627.991 489,629.5C 487.833,628.333 486.667,627.167 485.5,626C 487.791,624.123 489.791,624.29 491.5,626.5C 491.296,625.471 491.796,624.471 493,623.5C 493.914,624.654 494.747,624.487 495.5,623C 493.998,622.417 492.665,621.584 491.5,620.5C 492.855,619.325 492.688,618.325 491,617.5C 489.745,618.211 488.579,619.044 487.5,620C 488.5,621 489.5,622 490.5,623C 488.613,623.163 487.113,622.329 486,620.5C 485,620.833 484,621.167 483,621.5C 483.195,619.874 483.195,618.207 483,616.5C 481.951,617.517 480.784,617.684 479.5,617C 480.167,616.667 480.833,616.333 481.5,616C 480.354,615.355 479.354,614.522 478.5,613.5C 478.141,614.917 476.975,616.25 475,617.5C 474.395,615.519 473.395,615.185 472,616.5C 470.729,612.834 471.896,610.334 475.5,609C 474.584,608.626 473.75,608.126 473,607.5C 472.692,608.308 472.192,608.975 471.5,609.5C 470.289,608.726 470.289,607.893 471.5,607C 469.899,606.727 468.399,606.227 467,605.5C 466.667,606.167 466.333,606.833 466,607.5C 464.817,606.269 463.651,606.269 462.5,607.5C 463.025,608.192 463.692,608.692 464.5,609C 463.584,609.374 462.75,609.874 462,610.5C 460.113,606.756 457.113,604.423 453,603.5C 449.989,605 450.489,605.834 454.5,606C 453.167,606.333 451.833,606.667 450.5,607C 451.604,608.131 451.271,608.965 449.5,609.5C 449.793,607.953 449.293,606.286 448,604.5C 446.757,605.336 445.59,605.003 444.5,603.5C 446.303,601.795 446.969,599.962 446.5,598C 444.001,597.714 441.835,597.881 440,598.5C 439.508,597.451 439.674,596.451 440.5,595.5C 439.624,594.749 438.624,594.249 437.5,594C 437.833,593.667 438.167,593.333 438.5,593C 437.256,592.544 436.423,593.044 436,594.5C 435.535,593.069 434.701,591.903 433.5,591C 439.487,590.767 440.487,588.767 436.5,585C 436.833,584.667 437.167,584.333 437.5,584C 436.5,583.667 435.5,583.333 434.5,583C 435.717,581.352 436.55,579.519 437,577.5C 437.75,576.874 438.584,576.374 439.5,576C 439.652,573.106 439.652,570.273 439.5,567.5C 439.811,566.522 440.478,565.855 441.5,565.5C 443.396,566.275 445.063,567.275 446.5,568.5 Z"/></g>
<g><path style="opacity:0.688" fill="#fefbfa" d="M -0.5,796.5 C 0.117425,796.611 0.617425,796.944 1,797.5C 1.91211,800.982 2.74545,804.482 3.5,808C 2.19182,814.163 2.19182,820.33 3.5,826.5C 2.2587,831.43 1.42537,836.43 1,841.5C 0.617425,842.056 0.117425,842.389 -0.5,842.5C -0.5,827.167 -0.5,811.833 -0.5,796.5 Z"/></g>
</svg>
